#!OML:ASF F:\VICON\USERDATA\INSTALL\rory3\rory3.ASF
:FULLY-SPECIFIED
:DEGREES
2804
root -5.19685 17.8407 -2.55695 -170.932 125.25 -174.928
lowerback 3.29813 -2.38836 -3.24698
upperback 1.51184 -3.25788 1.62571
thorax -0.0163541 -1.64939 3.58926
lowerneck -9.65904 -14.5777 -17.7308
upperneck 17.0654 -18.6193 8.52726
head 9.44272 -9.18746 3.24739
rclavicle 1.71949e-014 -5.56597e-015
rhumerus -41.1993 -16.9086 -56.873
rradius 33.8908
rwrist 9.88197
rhand -26.527 -5.90314
rfingers 7.12502
rthumb 0.0367846 -35.8829
lclavicle 1.71949e-014 -5.56597e-015
lhumerus -45.4001 30.3024 61.4739
lradius 20.5427
lwrist -8.50541
lhand -13.7252 32.1907
lfingers 7.12502
lthumb 12.3941 1141.8
rfemur -12.062 2.32527 7.1606
rtibia 38.0281
rfoot -18.8115 -12.4296
rtoes 0.464134
lfemur -7.63748 1.12886 -19.7432
ltibia 20.1997
lfoot -12.0496 9.89262
ltoes -17.1624
2805
root -5.16679 17.8492 -2.60718 -170.925 125.054 -174.875
lowerback 3.44806 -2.43201 -3.55466
upperback 1.56503 -3.32841 1.68771
thorax -0.0172648 -1.68743 3.83338
lowerneck -9.74896 -14.5372 -17.6867
upperneck 16.9775 -18.5501 8.53497
head 9.41459 -9.14929 3.25248
rclavicle 6.15239e-014 7.95139e-015
rhumerus -41.0206 -16.9673 -57.1874
rradius 33.8305
rwrist 10.1693
rhand -26.3728 -5.87699
rfingers 7.12502
rthumb 0.18573 -35.8567
lclavicle 6.15239e-014 7.95139e-015
lhumerus -44.6697 30.543 61.3601
lradius 20.0086
lwrist -9.93815
lhand -13.2608 31.4654
lfingers 7.12502
lthumb 12.8418 1141.05
rfemur -12.455 2.53456 7.02764
rtibia 38.7426
rfoot -18.7507 -13.0554
rtoes 1.6608
lfemur -7.56359 1.57839 -19.9111
ltibia 19.9853
lfoot -12.0393 9.16923
ltoes -16.7668
2806
root -5.13311 17.8556 -2.6585 -171.039 124.967 -174.925
lowerback 3.57461 -2.46983 -3.7533
upperback 1.65687 -3.38697 1.75116
thorax 0.0280716 -1.72055 4.01546
lowerneck -9.9554 -14.5187 -17.6924
upperneck 16.9667 -18.4849 8.52899
head 9.43827 -9.11271 3.24906
rclavicle -1.63997e-014 -7.95139e-016
rhumerus -40.7562 -17.0461 -57.5485
rradius 33.7622
rwrist 10.6738
rhand -26.2507 -5.7556
rfingers 7.12502
rthumb 0.303566 -35.7351
lclavicle -1.63997e-014 -7.95139e-016
lhumerus -43.8405 30.4942 61.5753
lradius 19.6362
lwrist -11.0303
lhand -12.9672 31.1813
lfingers 7.12502
lthumb 13.1248 1140.75
rfemur -12.8588 2.75102 6.91555
rtibia 39.4853
rfoot -18.6586 -13.6142
rtoes 3.01533
lfemur -7.4256 1.8554 -20.0521
ltibia 19.7954
lfoot -12.0208 8.73066
ltoes -16.6058
2807
root -5.09863 17.861 -2.70956 -171.082 124.897 -174.94
lowerback 3.71293 -2.50862 -3.88851
upperback 1.66179 -3.4472 1.77514
thorax -0.0283582 -1.75035 4.1247
lowerneck -9.94607 -14.4808 -17.7689
upperneck 16.8894 -18.4282 8.59158
head 9.41634 -9.08607 3.29212
rclavicle -3.96575e-014 1.66979e-014
rhumerus -40.6706 -17.299 -57.8278
rradius 33.7022
rwrist 11.3179
rhand -26.1435 -5.43595
rfingers 7.12502
rthumb 0.407158 -35.4153
lclavicle -3.96575e-014 1.66979e-014
lhumerus -42.9611 29.6886 62.2197
lradius 19.4732
lwrist -11.1509
lhand -13.0307 31.3361
lfingers 7.12502
lthumb 13.0636 1140.91
rfemur -13.2996 2.89479 6.80091
rtibia 40.2523
rfoot -18.4755 -14.2209
rtoes 3.64147
lfemur -7.3334 2.06674 -20.2142
ltibia 19.6599
lfoot -12.0856 8.36924
ltoes -16.7314
2808
root -5.06694 17.8656 -2.76384 -170.986 124.806 -174.931
lowerback 3.80081 -2.51643 -3.99381
upperback 1.60147 -3.46507 1.79094
thorax -0.130272 -1.75658 4.20719
lowerneck -9.84572 -14.4792 -17.7771
upperneck 16.7848 -18.4272 8.55941
head 9.35946 -9.09256 3.29141
rclavicle 6.4605e-015 -1.59028e-014
rhumerus -40.6529 -17.6107 -58.0968
rradius 33.7027
rwrist 11.8422
rhand -25.8447 -5.23085
rfingers 7.12502
rthumb 0.695713 -35.2095
lclavicle 6.4605e-015 -1.59028e-014
lhumerus -42.0665 28.8851 62.8265
lradius 19.2385
lwrist -11.1755
lhand -13.4143 31.4676
lfingers 7.12502
lthumb 12.6938 1141.06
rfemur -13.8955 2.90367 6.66846
rtibia 41.0307
rfoot -18.1411 -14.8376
rtoes 5.05316
lfemur -7.4272 2.33223 -20.3958
ltibia 19.5884
lfoot -12.1073 7.92667
ltoes -16.5293
